ISO-10303-21;
HEADER;
FILE_DESCRIPTION(('FreeCAD Model'),'2;1');
FILE_NAME('Open CASCADE Shape Model','2025-11-17T09:40:44',('Author'),(
    ''),'Open CASCADE STEP processor 7.7','FreeCAD','Unknown');
FILE_SCHEMA(('AUTOMOTIVE_DESIGN { 1 0 10303 214 1 1 1 1 }'));
ENDSEC;
DATA;
#1 = APPLICATION_PROTOCOL_DEFINITION('international standard',
  'automotive_design',2000,#2);
#2 = APPLICATION_CONTEXT(
  'core data for automotive mechanical design processes');
#3 = SHAPE_DEFINITION_REPRESENTATION(#4,#10);
#4 = PRODUCT_DEFINITION_SHAPE('','',#5);
#5 = PRODUCT_DEFINITION('design','',#6,#9);
#6 = PRODUCT_DEFINITION_FORMATION('','',#7);
#7 = PRODUCT('Pad','Pad','',(#8));
#8 = PRODUCT_CONTEXT('',#2,'mechanical');
#9 = PRODUCT_DEFINITION_CONTEXT('part definition',#2,'design');
#10 = ADVANCED_BREP_SHAPE_REPRESENTATION('',(#11,#15),#371);
#11 = AXIS2_PLACEMENT_3D('',#12,#13,#14);
#12 = CARTESIAN_POINT('',(0.,0.,0.));
#13 = DIRECTION('',(0.,0.,1.));
#14 = DIRECTION('',(1.,0.,-0.));
#15 = MANIFOLD_SOLID_BREP('',#16);
#16 = CLOSED_SHELL('',(#17,#57,#90,#121,#154,#185,#218,#249,#280,#311,
    #335,#353));
#17 = ADVANCED_FACE('',(#18),#52,.F.);
#18 = FACE_BOUND('',#19,.F.);
#19 = EDGE_LOOP('',(#20,#30,#38,#46));
#20 = ORIENTED_EDGE('',*,*,#21,.T.);
#21 = EDGE_CURVE('',#22,#24,#26,.T.);
#22 = VERTEX_POINT('',#23);
#23 = CARTESIAN_POINT('',(50.5,4.440892098501E-15,20.));
#24 = VERTEX_POINT('',#25);
#25 = CARTESIAN_POINT('',(50.5,-70.,20.));
#26 = LINE('',#27,#28);
#27 = CARTESIAN_POINT('',(50.5,4.440892098501E-15,20.));
#28 = VECTOR('',#29,1.);
#29 = DIRECTION('',(0.,-1.,2.22044604925E-16));
#30 = ORIENTED_EDGE('',*,*,#31,.T.);
#31 = EDGE_CURVE('',#24,#32,#34,.T.);
#32 = VERTEX_POINT('',#33);
#33 = CARTESIAN_POINT('',(4.999999999968,-70.,19.999999999998));
#34 = LINE('',#35,#36);
#35 = CARTESIAN_POINT('',(50.5,-70.,20.));
#36 = VECTOR('',#37,1.);
#37 = DIRECTION('',(-1.,0.,0.));
#38 = ORIENTED_EDGE('',*,*,#39,.F.);
#39 = EDGE_CURVE('',#40,#32,#42,.T.);
#40 = VERTEX_POINT('',#41);
#41 = CARTESIAN_POINT('',(4.999999999968,4.4408920985E-15,
    19.999999999998));
#42 = LINE('',#43,#44);
#43 = CARTESIAN_POINT('',(4.999999999968,4.4408920985E-15,
    19.999999999998));
#44 = VECTOR('',#45,1.);
#45 = DIRECTION('',(0.,-1.,2.22044604925E-16));
#46 = ORIENTED_EDGE('',*,*,#47,.F.);
#47 = EDGE_CURVE('',#22,#40,#48,.T.);
#48 = LINE('',#49,#50);
#49 = CARTESIAN_POINT('',(50.5,4.440892098501E-15,20.));
#50 = VECTOR('',#51,1.);
#51 = DIRECTION('',(-1.,0.,0.));
#52 = PLANE('',#53);
#53 = AXIS2_PLACEMENT_3D('',#54,#55,#56);
#54 = CARTESIAN_POINT('',(50.5,4.440892098501E-15,20.));
#55 = DIRECTION('',(0.,-2.22044604925E-16,-1.));
#56 = DIRECTION('',(-1.,-0.,0.));
#57 = ADVANCED_FACE('',(#58),#85,.T.);
#58 = FACE_BOUND('',#59,.F.);
#59 = EDGE_LOOP('',(#60,#61,#70,#78));
#60 = ORIENTED_EDGE('',*,*,#39,.T.);
#61 = ORIENTED_EDGE('',*,*,#62,.T.);
#62 = EDGE_CURVE('',#32,#63,#65,.T.);
#63 = VERTEX_POINT('',#64);
#64 = CARTESIAN_POINT('',(-1.148592332356E-11,-70.,15.000000000015));
#65 = CIRCLE('',#66,5.);
#66 = AXIS2_PLACEMENT_3D('',#67,#68,#69);
#67 = CARTESIAN_POINT('',(4.999999999989,-70.,14.999999999997));
#68 = DIRECTION('',(0.,-1.,2.22044604925E-16));
#69 = DIRECTION('',(1.,0.,0.));
#70 = ORIENTED_EDGE('',*,*,#71,.F.);
#71 = EDGE_CURVE('',#72,#63,#74,.T.);
#72 = VERTEX_POINT('',#73);
#73 = CARTESIAN_POINT('',(-1.148592332356E-11,3.330669073879E-15,
    15.000000000015));
#74 = LINE('',#75,#76);
#75 = CARTESIAN_POINT('',(-1.148592332356E-11,3.330669073879E-15,
    15.000000000015));
#76 = VECTOR('',#77,1.);
#77 = DIRECTION('',(0.,-1.,2.22044604925E-16));
#78 = ORIENTED_EDGE('',*,*,#79,.F.);
#79 = EDGE_CURVE('',#40,#72,#80,.T.);
#80 = CIRCLE('',#81,5.);
#81 = AXIS2_PLACEMENT_3D('',#82,#83,#84);
#82 = CARTESIAN_POINT('',(4.999999999989,3.330669073875E-15,
    14.999999999997));
#83 = DIRECTION('',(0.,-1.,2.22044604925E-16));
#84 = DIRECTION('',(1.,0.,0.));
#85 = CYLINDRICAL_SURFACE('',#86,5.);
#86 = AXIS2_PLACEMENT_3D('',#87,#88,#89);
#87 = CARTESIAN_POINT('',(4.999999999989,3.330669073875E-15,
    14.999999999997));
#88 = DIRECTION('',(0.,1.,-2.22044604925E-16));
#89 = DIRECTION('',(1.,0.,0.));
#90 = ADVANCED_FACE('',(#91),#116,.F.);
#91 = FACE_BOUND('',#92,.F.);
#92 = EDGE_LOOP('',(#93,#94,#102,#110));
#93 = ORIENTED_EDGE('',*,*,#71,.T.);
#94 = ORIENTED_EDGE('',*,*,#95,.T.);
#95 = EDGE_CURVE('',#63,#96,#98,.T.);
#96 = VERTEX_POINT('',#97);
#97 = CARTESIAN_POINT('',(-4.440892098501E-16,-70.,3.535533905933));
#98 = LINE('',#99,#100);
#99 = CARTESIAN_POINT('',(-1.148592332356E-11,-70.,15.000000000015));
#100 = VECTOR('',#101,1.);
#101 = DIRECTION('',(1.001832893054E-12,-2.22044604925E-16,-1.));
#102 = ORIENTED_EDGE('',*,*,#103,.F.);
#103 = EDGE_CURVE('',#104,#96,#106,.T.);
#104 = VERTEX_POINT('',#105);
#105 = CARTESIAN_POINT('',(-4.440892098501E-16,7.850462293419E-16,
    3.535533905933));
#106 = LINE('',#107,#108);
#107 = CARTESIAN_POINT('',(-4.440892098501E-16,7.850462293419E-16,
    3.535533905933));
#108 = VECTOR('',#109,1.);
#109 = DIRECTION('',(0.,-1.,2.22044604925E-16));
#110 = ORIENTED_EDGE('',*,*,#111,.F.);
#111 = EDGE_CURVE('',#72,#104,#112,.T.);
#112 = LINE('',#113,#114);
#113 = CARTESIAN_POINT('',(-1.148592332356E-11,3.330669073879E-15,
    15.000000000015));
#114 = VECTOR('',#115,1.);
#115 = DIRECTION('',(1.001832893054E-12,-2.22044604925E-16,-1.));
#116 = PLANE('',#117);
#117 = AXIS2_PLACEMENT_3D('',#118,#119,#120);
#118 = CARTESIAN_POINT('',(-1.148592332356E-11,3.330669073879E-15,
    15.000000000015));
#119 = DIRECTION('',(1.,2.22451588939E-28,1.001832893054E-12));
#120 = DIRECTION('',(1.001832893054E-12,-2.22044604925E-16,-1.));
#121 = ADVANCED_FACE('',(#122),#149,.T.);
#122 = FACE_BOUND('',#123,.F.);
#123 = EDGE_LOOP('',(#124,#125,#134,#142));
#124 = ORIENTED_EDGE('',*,*,#103,.T.);
#125 = ORIENTED_EDGE('',*,*,#126,.T.);
#126 = EDGE_CURVE('',#96,#127,#129,.T.);
#127 = VERTEX_POINT('',#128);
#128 = CARTESIAN_POINT('',(3.535533905933,-70.,1.554312234475E-14));
#129 = CIRCLE('',#130,3.535533905933);
#130 = AXIS2_PLACEMENT_3D('',#131,#132,#133);
#131 = CARTESIAN_POINT('',(3.535533905933,-70.,3.535533905933));
#132 = DIRECTION('',(0.,-1.,2.22044604925E-16));
#133 = DIRECTION('',(1.,0.,0.));
#134 = ORIENTED_EDGE('',*,*,#135,.F.);
#135 = EDGE_CURVE('',#136,#127,#138,.T.);
#136 = VERTEX_POINT('',#137);
#137 = CARTESIAN_POINT('',(3.535533905933,0.,0.));
#138 = LINE('',#139,#140);
#139 = CARTESIAN_POINT('',(3.535533905933,0.,0.));
#140 = VECTOR('',#141,1.);
#141 = DIRECTION('',(0.,-1.,2.22044604925E-16));
#142 = ORIENTED_EDGE('',*,*,#143,.F.);
#143 = EDGE_CURVE('',#104,#136,#144,.T.);
#144 = CIRCLE('',#145,3.535533905933);
#145 = AXIS2_PLACEMENT_3D('',#146,#147,#148);
#146 = CARTESIAN_POINT('',(3.535533905933,7.850462293419E-16,
    3.535533905933));
#147 = DIRECTION('',(0.,-1.,2.22044604925E-16));
#148 = DIRECTION('',(1.,0.,0.));
#149 = CYLINDRICAL_SURFACE('',#150,3.535533905933);
#150 = AXIS2_PLACEMENT_3D('',#151,#152,#153);
#151 = CARTESIAN_POINT('',(3.535533905933,7.850462293419E-16,
    3.535533905933));
#152 = DIRECTION('',(0.,1.,-2.22044604925E-16));
#153 = DIRECTION('',(1.,0.,0.));
#154 = ADVANCED_FACE('',(#155),#180,.F.);
#155 = FACE_BOUND('',#156,.F.);
#156 = EDGE_LOOP('',(#157,#158,#166,#174));
#157 = ORIENTED_EDGE('',*,*,#135,.T.);
#158 = ORIENTED_EDGE('',*,*,#159,.T.);
#159 = EDGE_CURVE('',#127,#160,#162,.T.);
#160 = VERTEX_POINT('',#161);
#161 = CARTESIAN_POINT('',(168.,-70.,1.554312234475E-14));
#162 = LINE('',#163,#164);
#163 = CARTESIAN_POINT('',(3.535533905933,-70.,1.42108547152E-14));
#164 = VECTOR('',#165,1.);
#165 = DIRECTION('',(1.,-4.506639315617E-55,-2.029609914251E-39));
#166 = ORIENTED_EDGE('',*,*,#167,.F.);
#167 = EDGE_CURVE('',#168,#160,#170,.T.);
#168 = VERTEX_POINT('',#169);
#169 = CARTESIAN_POINT('',(168.,-7.411820289216E-53,-3.337987109265E-37)
  );
#170 = LINE('',#171,#172);
#171 = CARTESIAN_POINT('',(168.,-7.411820289216E-53,-3.337987109265E-37)
  );
#172 = VECTOR('',#173,1.);
#173 = DIRECTION('',(0.,-1.,2.22044604925E-16));
#174 = ORIENTED_EDGE('',*,*,#175,.F.);
#175 = EDGE_CURVE('',#136,#168,#176,.T.);
#176 = LINE('',#177,#178);
#177 = CARTESIAN_POINT('',(3.535533905933,0.,0.));
#178 = VECTOR('',#179,1.);
#179 = DIRECTION('',(1.,-4.506639315617E-55,-2.029609914251E-39));
#180 = PLANE('',#181);
#181 = AXIS2_PLACEMENT_3D('',#182,#183,#184);
#182 = CARTESIAN_POINT('',(3.535533905933,0.,0.));
#183 = DIRECTION('',(2.029609914251E-39,2.22044604925E-16,1.));
#184 = DIRECTION('',(1.,-4.506639315617E-55,-2.029609914251E-39));
#185 = ADVANCED_FACE('',(#186),#213,.T.);
#186 = FACE_BOUND('',#187,.F.);
#187 = EDGE_LOOP('',(#188,#189,#198,#206));
#188 = ORIENTED_EDGE('',*,*,#167,.T.);
#189 = ORIENTED_EDGE('',*,*,#190,.T.);
#190 = EDGE_CURVE('',#160,#191,#193,.T.);
#191 = VERTEX_POINT('',#192);
#192 = CARTESIAN_POINT('',(193.,-70.,25.));
#193 = CIRCLE('',#194,25.);
#194 = AXIS2_PLACEMENT_3D('',#195,#196,#197);
#195 = CARTESIAN_POINT('',(168.,-70.,25.));
#196 = DIRECTION('',(0.,-1.,2.22044604925E-16));
#197 = DIRECTION('',(1.,0.,0.));
#198 = ORIENTED_EDGE('',*,*,#199,.F.);
#199 = EDGE_CURVE('',#200,#191,#202,.T.);
#200 = VERTEX_POINT('',#201);
#201 = CARTESIAN_POINT('',(193.,5.551115123126E-15,25.));
#202 = LINE('',#203,#204);
#203 = CARTESIAN_POINT('',(193.,5.551115123126E-15,25.));
#204 = VECTOR('',#205,1.);
#205 = DIRECTION('',(0.,-1.,2.22044604925E-16));
#206 = ORIENTED_EDGE('',*,*,#207,.F.);
#207 = EDGE_CURVE('',#168,#200,#208,.T.);
#208 = CIRCLE('',#209,25.);
#209 = AXIS2_PLACEMENT_3D('',#210,#211,#212);
#210 = CARTESIAN_POINT('',(168.,5.551115123126E-15,25.));
#211 = DIRECTION('',(0.,-1.,2.22044604925E-16));
#212 = DIRECTION('',(1.,0.,0.));
#213 = CYLINDRICAL_SURFACE('',#214,25.);
#214 = AXIS2_PLACEMENT_3D('',#215,#216,#217);
#215 = CARTESIAN_POINT('',(168.,5.551115123126E-15,25.));
#216 = DIRECTION('',(0.,1.,-2.22044604925E-16));
#217 = DIRECTION('',(1.,0.,0.));
#218 = ADVANCED_FACE('',(#219),#244,.F.);
#219 = FACE_BOUND('',#220,.F.);
#220 = EDGE_LOOP('',(#221,#222,#230,#238));
#221 = ORIENTED_EDGE('',*,*,#199,.T.);
#222 = ORIENTED_EDGE('',*,*,#223,.T.);
#223 = EDGE_CURVE('',#191,#224,#226,.T.);
#224 = VERTEX_POINT('',#225);
#225 = CARTESIAN_POINT('',(193.,-70.,336.));
#226 = LINE('',#227,#228);
#227 = CARTESIAN_POINT('',(193.,-70.,25.));
#228 = VECTOR('',#229,1.);
#229 = DIRECTION('',(0.,2.22044604925E-16,1.));
#230 = ORIENTED_EDGE('',*,*,#231,.F.);
#231 = EDGE_CURVE('',#232,#224,#234,.T.);
#232 = VERTEX_POINT('',#233);
#233 = CARTESIAN_POINT('',(193.,7.460698725481E-14,336.));
#234 = LINE('',#235,#236);
#235 = CARTESIAN_POINT('',(193.,7.460698725481E-14,336.));
#236 = VECTOR('',#237,1.);
#237 = DIRECTION('',(0.,-1.,2.22044604925E-16));
#238 = ORIENTED_EDGE('',*,*,#239,.F.);
#239 = EDGE_CURVE('',#200,#232,#240,.T.);
#240 = LINE('',#241,#242);
#241 = CARTESIAN_POINT('',(193.,5.551115123126E-15,25.));
#242 = VECTOR('',#243,1.);
#243 = DIRECTION('',(0.,2.22044604925E-16,1.));
#244 = PLANE('',#245);
#245 = AXIS2_PLACEMENT_3D('',#246,#247,#248);
#246 = CARTESIAN_POINT('',(193.,5.551115123126E-15,25.));
#247 = DIRECTION('',(-1.,-0.,0.));
#248 = DIRECTION('',(0.,2.22044604925E-16,1.));
#249 = ADVANCED_FACE('',(#250),#275,.F.);
#250 = FACE_BOUND('',#251,.F.);
#251 = EDGE_LOOP('',(#252,#253,#261,#269));
#252 = ORIENTED_EDGE('',*,*,#231,.T.);
#253 = ORIENTED_EDGE('',*,*,#254,.T.);
#254 = EDGE_CURVE('',#224,#255,#257,.T.);
#255 = VERTEX_POINT('',#256);
#256 = CARTESIAN_POINT('',(110.5,-70.,336.));
#257 = LINE('',#258,#259);
#258 = CARTESIAN_POINT('',(193.,-70.,336.));
#259 = VECTOR('',#260,1.);
#260 = DIRECTION('',(-1.,0.,0.));
#261 = ORIENTED_EDGE('',*,*,#262,.F.);
#262 = EDGE_CURVE('',#263,#255,#265,.T.);
#263 = VERTEX_POINT('',#264);
#264 = CARTESIAN_POINT('',(110.5,7.460698725481E-14,336.));
#265 = LINE('',#266,#267);
#266 = CARTESIAN_POINT('',(110.5,7.460698725481E-14,336.));
#267 = VECTOR('',#268,1.);
#268 = DIRECTION('',(0.,-1.,2.22044604925E-16));
#269 = ORIENTED_EDGE('',*,*,#270,.F.);
#270 = EDGE_CURVE('',#232,#263,#271,.T.);
#271 = LINE('',#272,#273);
#272 = CARTESIAN_POINT('',(193.,7.460698725481E-14,336.));
#273 = VECTOR('',#274,1.);
#274 = DIRECTION('',(-1.,0.,0.));
#275 = PLANE('',#276);
#276 = AXIS2_PLACEMENT_3D('',#277,#278,#279);
#277 = CARTESIAN_POINT('',(193.,7.460698725481E-14,336.));
#278 = DIRECTION('',(0.,-2.22044604925E-16,-1.));
#279 = DIRECTION('',(-1.,-0.,0.));
#280 = ADVANCED_FACE('',(#281),#306,.F.);
#281 = FACE_BOUND('',#282,.F.);
#282 = EDGE_LOOP('',(#283,#284,#292,#300));
#283 = ORIENTED_EDGE('',*,*,#262,.T.);
#284 = ORIENTED_EDGE('',*,*,#285,.T.);
#285 = EDGE_CURVE('',#255,#286,#288,.T.);
#286 = VERTEX_POINT('',#287);
#287 = CARTESIAN_POINT('',(110.5,-70.,80.));
#288 = LINE('',#289,#290);
#289 = CARTESIAN_POINT('',(110.5,-70.,336.));
#290 = VECTOR('',#291,1.);
#291 = DIRECTION('',(0.,-2.22044604925E-16,-1.));
#292 = ORIENTED_EDGE('',*,*,#293,.F.);
#293 = EDGE_CURVE('',#294,#286,#296,.T.);
#294 = VERTEX_POINT('',#295);
#295 = CARTESIAN_POINT('',(110.5,1.7763568394E-14,80.));
#296 = LINE('',#297,#298);
#297 = CARTESIAN_POINT('',(110.5,1.7763568394E-14,80.));
#298 = VECTOR('',#299,1.);
#299 = DIRECTION('',(0.,-1.,2.22044604925E-16));
#300 = ORIENTED_EDGE('',*,*,#301,.F.);
#301 = EDGE_CURVE('',#263,#294,#302,.T.);
#302 = LINE('',#303,#304);
#303 = CARTESIAN_POINT('',(110.5,7.460698725481E-14,336.));
#304 = VECTOR('',#305,1.);
#305 = DIRECTION('',(0.,-2.22044604925E-16,-1.));
#306 = PLANE('',#307);
#307 = AXIS2_PLACEMENT_3D('',#308,#309,#310);
#308 = CARTESIAN_POINT('',(110.5,7.460698725481E-14,336.));
#309 = DIRECTION('',(1.,0.,0.));
#310 = DIRECTION('',(0.,-2.22044604925E-16,-1.));
#311 = ADVANCED_FACE('',(#312),#330,.F.);
#312 = FACE_BOUND('',#313,.T.);
#313 = EDGE_LOOP('',(#314,#315,#322,#323));
#314 = ORIENTED_EDGE('',*,*,#21,.T.);
#315 = ORIENTED_EDGE('',*,*,#316,.T.);
#316 = EDGE_CURVE('',#24,#286,#317,.T.);
#317 = CIRCLE('',#318,60.);
#318 = AXIS2_PLACEMENT_3D('',#319,#320,#321);
#319 = CARTESIAN_POINT('',(50.5,-70.,80.));
#320 = DIRECTION('',(0.,-1.,2.22044604925E-16));
#321 = DIRECTION('',(1.,0.,0.));
#322 = ORIENTED_EDGE('',*,*,#293,.F.);
#323 = ORIENTED_EDGE('',*,*,#324,.F.);
#324 = EDGE_CURVE('',#22,#294,#325,.T.);
#325 = CIRCLE('',#326,60.);
#326 = AXIS2_PLACEMENT_3D('',#327,#328,#329);
#327 = CARTESIAN_POINT('',(50.5,1.7763568394E-14,80.));
#328 = DIRECTION('',(0.,-1.,2.22044604925E-16));
#329 = DIRECTION('',(1.,0.,0.));
#330 = CYLINDRICAL_SURFACE('',#331,60.);
#331 = AXIS2_PLACEMENT_3D('',#332,#333,#334);
#332 = CARTESIAN_POINT('',(50.5,1.7763568394E-14,80.));
#333 = DIRECTION('',(0.,1.,-2.22044604925E-16));
#334 = DIRECTION('',(1.,0.,0.));
#335 = ADVANCED_FACE('',(#336),#348,.T.);
#336 = FACE_BOUND('',#337,.F.);
#337 = EDGE_LOOP('',(#338,#339,#340,#341,#342,#343,#344,#345,#346,#347)
  );
#338 = ORIENTED_EDGE('',*,*,#47,.T.);
#339 = ORIENTED_EDGE('',*,*,#79,.T.);
#340 = ORIENTED_EDGE('',*,*,#111,.T.);
#341 = ORIENTED_EDGE('',*,*,#143,.T.);
#342 = ORIENTED_EDGE('',*,*,#175,.T.);
#343 = ORIENTED_EDGE('',*,*,#207,.T.);
#344 = ORIENTED_EDGE('',*,*,#239,.T.);
#345 = ORIENTED_EDGE('',*,*,#270,.T.);
#346 = ORIENTED_EDGE('',*,*,#301,.T.);
#347 = ORIENTED_EDGE('',*,*,#324,.F.);
#348 = PLANE('',#349);
#349 = AXIS2_PLACEMENT_3D('',#350,#351,#352);
#350 = CARTESIAN_POINT('',(129.43490530618,3.116180583747E-14,
    140.34029715781));
#351 = DIRECTION('',(0.,1.,-4.930380657631E-32));
#352 = DIRECTION('',(0.,4.930380657631E-32,1.));
#353 = ADVANCED_FACE('',(#354),#366,.F.);
#354 = FACE_BOUND('',#355,.T.);
#355 = EDGE_LOOP('',(#356,#357,#358,#359,#360,#361,#362,#363,#364,#365)
  );
#356 = ORIENTED_EDGE('',*,*,#31,.T.);
#357 = ORIENTED_EDGE('',*,*,#62,.T.);
#358 = ORIENTED_EDGE('',*,*,#95,.T.);
#359 = ORIENTED_EDGE('',*,*,#126,.T.);
#360 = ORIENTED_EDGE('',*,*,#159,.T.);
#361 = ORIENTED_EDGE('',*,*,#190,.T.);
#362 = ORIENTED_EDGE('',*,*,#223,.T.);
#363 = ORIENTED_EDGE('',*,*,#254,.T.);
#364 = ORIENTED_EDGE('',*,*,#285,.T.);
#365 = ORIENTED_EDGE('',*,*,#316,.F.);
#366 = PLANE('',#367);
#367 = AXIS2_PLACEMENT_3D('',#368,#369,#370);
#368 = CARTESIAN_POINT('',(129.43490530618,-70.,140.34029715781));
#369 = DIRECTION('',(0.,1.,-4.930380657631E-32));
#370 = DIRECTION('',(0.,4.930380657631E-32,1.));
#371 = ( GEOMETRIC_REPRESENTATION_CONTEXT(3) 
GLOBAL_UNCERTAINTY_ASSIGNED_CONTEXT((#375)) GLOBAL_UNIT_ASSIGNED_CONTEXT
((#372,#373,#374)) REPRESENTATION_CONTEXT('Context #1',
  '3D Context with UNIT and UNCERTAINTY') );
#372 = ( LENGTH_UNIT() NAMED_UNIT(*) SI_UNIT(.MILLI.,.METRE.) );
#373 = ( NAMED_UNIT(*) PLANE_ANGLE_UNIT() SI_UNIT($,.RADIAN.) );
#374 = ( NAMED_UNIT(*) SI_UNIT($,.STERADIAN.) SOLID_ANGLE_UNIT() );
#375 = UNCERTAINTY_MEASURE_WITH_UNIT(LENGTH_MEASURE(1.E-07),#372,
  'distance_accuracy_value','confusion accuracy');
#376 = PRODUCT_RELATED_PRODUCT_CATEGORY('part',$,(#7));
#377 = MECHANICAL_DESIGN_GEOMETRIC_PRESENTATION_REPRESENTATION('',(#378)
  ,#371);
#378 = STYLED_ITEM('color',(#379),#15);
#379 = PRESENTATION_STYLE_ASSIGNMENT((#380,#386));
#380 = SURFACE_STYLE_USAGE(.BOTH.,#381);
#381 = SURFACE_SIDE_STYLE('',(#382));
#382 = SURFACE_STYLE_FILL_AREA(#383);
#383 = FILL_AREA_STYLE('',(#384));
#384 = FILL_AREA_STYLE_COLOUR('',#385);
#385 = COLOUR_RGB('',0.678430976034,0.709803998361,0.741176010593);
#386 = CURVE_STYLE('',#387,POSITIVE_LENGTH_MEASURE(0.1),#388);
#387 = DRAUGHTING_PRE_DEFINED_CURVE_FONT('continuous');
#388 = COLOUR_RGB('',9.803921802644E-02,9.803921802644E-02,
  9.803921802644E-02);
ENDSEC;
END-ISO-10303-21;
